<svg width="112" height="40" viewBox="0 0 112 40" fill="none" xmlns="http://www.w3.org/2000/svg">
<path fill-rule="evenodd" clip-rule="evenodd" d="M0.270721 39.9999V0.298096H111.902V39.9999H0.270721Z" fill="#EAEAEA"/>
<path fill-rule="evenodd" clip-rule="evenodd" d="M56.2427 38.3783C71.1408 38.3783 86.2123 36.669 100.074 30.9289C104.516 29.0945 110.43 25.601 110.43 20.1487C110.43 14.6836 104.504 11.2028 100.074 9.36842C86.2123 3.62894 71.1402 1.91968 56.2427 1.91968C41.3827 1.91968 26.1111 3.51652 12.3232 9.36842C8.23079 11.1025 1.74307 14.9955 1.74307 20.1487C1.74307 25.2892 8.21872 29.1943 12.3232 30.9289C26.1104 36.7808 41.3947 38.3783 56.2427 38.3783Z" fill="white"/>
<path fill-rule="evenodd" clip-rule="evenodd" d="M71.964 22.0588C71.6763 21.8714 71.365 21.7342 71.015 21.7342H65.8371V22.5828H72.6754C73.0114 22.5828 73.3239 22.4449 73.611 22.2709V27.4483H56.3049C56.6041 27.1986 56.8785 26.8868 56.8785 26.4872V13.3244C56.8785 12.9135 56.6041 12.6009 56.3049 12.3513H73.6104V17.03C73.3239 16.8433 73.0114 16.7055 72.6748 16.7055H65.8364V17.6913H71.0144C71.3644 17.6913 71.6756 17.5661 71.9634 17.3673V22.0588H71.964ZM88.4945 24.4292H84.665L83.9035 26.6873C83.878 26.7681 83.8654 26.8523 83.866 26.9369C83.866 27.1243 83.9282 27.2869 84.0159 27.4489H75.1939C75.3933 27.2494 75.5312 27.0379 75.6309 26.775L80.335 14.0854C80.4481 13.7735 80.5472 13.4368 80.5472 13.1123C80.5472 12.8379 80.4481 12.5882 80.335 12.3513H94.5954C94.4836 12.6009 94.3718 12.8506 94.3718 13.125C94.3718 13.4616 94.4709 13.7862 94.5954 14.0854L99.7861 26.775C99.8865 27.05 100.037 27.2488 100.261 27.4489H89.244C89.3184 27.2621 89.3692 27.0748 89.3692 26.8753C89.3692 26.7629 89.3558 26.6632 89.3184 26.5634L88.4945 24.4292ZM40.1593 21.9082V26.4745C40.1593 26.8861 40.4217 27.1859 40.7208 27.4476H30.2778C30.5649 27.1859 30.8393 26.8861 30.8393 26.4745V13.3371C30.8393 12.9135 30.5649 12.6257 30.2778 12.3513H40.7215C40.4217 12.6136 40.16 12.9128 40.16 13.3371V17.8786L43.1917 13.3371C43.2793 13.1999 43.3536 13.0379 43.3536 12.8626C43.3536 12.688 43.2666 12.5133 43.1917 12.3513H53.4981C53.055 12.5824 52.6772 12.9214 52.3999 13.3371L48.7812 18.59L53.7718 26.4752C54.0342 26.8995 54.3956 27.2113 54.8447 27.4483H42.8423C42.9293 27.3238 43.0418 27.1866 43.0418 27.0373C43.0418 26.8378 42.942 26.6378 42.8423 26.4752L40.1593 21.9082ZM15.8669 12.3513H26.5595C26.2603 12.6136 25.998 12.9001 25.998 13.3244V26.4752C25.998 26.8868 26.2603 27.1866 26.5595 27.4483H15.8669C16.154 27.1866 16.4157 26.8868 16.4157 26.4752V13.3244C16.4157 12.9001 16.154 12.6136 15.8669 12.3513Z" fill="#EAEAEA"/>
<path fill-rule="evenodd" clip-rule="evenodd" d="M85.6501 21.3848H87.3594L86.474 18.9768L85.6501 21.3848Z" fill="white"/>
</svg>
